<svg width="20" height="21" viewBox="0 0 20 21" fill="none" xmlns="http://www.w3.org/2000/svg">
<path fill-rule="evenodd" clip-rule="evenodd" d="M0.392065 6.73169H4.3629V20H0.392065V6.73169ZM2.35317 0C3.67678 0 4.75496 1.07292 4.75496 2.39007C4.75496 3.70723 3.67678 4.78015 2.35317 4.78015C1.02956 4.78015 0 3.70723 0 2.39007C0 1.07292 1.02956 0 2.35317 0ZM6.71607 6.73169H10.6375V8.5857C11.471 7.36608 12.8433 6.58577 14.4123 6.58577H15.4905C17.9903 6.58577 20 8.63486 20 11.0733V20H16.0786V18.7804V12.829C16.0292 11.3168 15.0004 10.1463 13.4807 10.1463C11.9611 10.1463 10.6869 11.3168 10.6375 12.829V20H6.71607V6.73169Z" fill="#5C707A"/>
</svg>
