<svg width="20" height="16" viewBox="0 0 20 16" fill="none" xmlns="http://www.w3.org/2000/svg">
<path fill-rule="evenodd" clip-rule="evenodd" d="M19.7667 3.96672C19.4553 1.63403 18.2882 1.23874 15.9926 1.04075C14.0084 0.882495 11.7512 0.803711 10.0003 0.803711C8.24945 0.803711 5.95381 0.882495 4.00809 1.04075C1.71245 1.23874 0.506322 1.63403 0.194843 3.96672C0.0782076 5.03407 0 6.4974 0 7.99978C0 9.50215 0.0775334 11.0045 0.194843 12.0328C0.506322 14.4053 1.71245 14.7608 4.00809 14.9588C5.95381 15.1568 8.24945 15.1958 10.0003 15.1958C11.7512 15.1958 14.0077 15.1561 15.9926 14.9588C18.2882 14.7608 19.4553 14.4053 19.7667 12.0328C19.9225 11.0045 20 9.50215 20 7.99978C20 6.4974 19.9225 5.03476 19.7667 3.96672ZM7.97707 11.0833V4.95529L13.1913 7.99978L7.97707 11.084V11.0833Z" fill="#5C707A"/>
</svg>
